<?xml version="1.0" encoding="UTF-8"?>
<svg xmlns="http://www.w3.org/2000/svg" width="371.2" height="430" viewBox="0 0 371.2 430" style="max-width: 371.2px; width: 100%; height: auto;" role="img">
  <rect width="100%" height="100%" rx="14" fill="#0a0810"/>
  <rect x="0.5" y="0.5" width="370.2" height="429" rx="14" fill="none" stroke="#2d2b31" stroke-width="1"/>
  <text x="185.6" y="23" text-anchor="middle" font-family='ui-monospace, "Cascadia Mono", "SF Mono", Menlo, Consolas, "DejaVu Sans Mono", monospace' font-size="13" fill="#8a8a8a">torlnk-plus</text>
  <g font-family='ui-monospace, "Cascadia Mono", "SF Mono", Menlo, Consolas, "DejaVu Sans Mono", monospace' font-size="16" fill="#ddd8ea">
    <text x="41.6" y="84" textLength="192" lengthAdjust="spacingAndGlyphs" xml:space="preserve" fill="#b9a7e6">1Find 2DL 3Seed 4Set</text>
    <text x="243.2" y="84" textLength="67.2" lengthAdjust="spacingAndGlyphs" xml:space="preserve" fill="#a78bfa" font-weight="600">5Health</text>
    <text x="41.6" y="106" textLength="19.2" lengthAdjust="spacingAndGlyphs" xml:space="preserve" fill="#6b6577">╭─</text>
    <text x="70.4" y="106" textLength="134.4" lengthAdjust="spacingAndGlyphs" xml:space="preserve" fill="#6b6577" font-weight="600">Service health</text>
    <text x="214.4" y="106" textLength="115.2" lengthAdjust="spacingAndGlyphs" xml:space="preserve" fill="#6b6577">───────────╮</text>
    <rect x="45.7" y="112" width="1.4" height="22" fill="#6b6577"/>
    <text x="60.8" y="128" textLength="192" lengthAdjust="spacingAndGlyphs" xml:space="preserve" fill="#86d6a2">supervisor · healthy</text>
    <rect x="324.1" y="112" width="1.4" height="22" fill="#6b6577"/>
    <rect x="45.7" y="134" width="1.4" height="22" fill="#6b6577"/>
    <text x="60.8" y="150" textLength="192" lengthAdjust="spacingAndGlyphs" xml:space="preserve" fill="#86d6a2">controller · healthy</text>
    <rect x="324.1" y="134" width="1.4" height="22" fill="#6b6577"/>
    <rect x="45.7" y="156" width="1.4" height="22" fill="#6b6577"/>
    <text x="60.8" y="172" textLength="163.2" lengthAdjust="spacingAndGlyphs" xml:space="preserve" fill="#86d6a2">gateway · healthy</text>
    <rect x="324.1" y="156" width="1.4" height="22" fill="#6b6577"/>
    <rect x="45.7" y="178" width="1.4" height="22" fill="#6b6577"/>
    <text x="60.8" y="194" textLength="153.6" lengthAdjust="spacingAndGlyphs" xml:space="preserve" fill="#86d6a2">search · healthy</text>
    <rect x="324.1" y="178" width="1.4" height="22" fill="#6b6577"/>
    <rect x="45.7" y="200" width="1.4" height="22" fill="#6b6577"/>
    <text x="60.8" y="216" textLength="201.6" lengthAdjust="spacingAndGlyphs" xml:space="preserve" fill="#86d6a2">qbittorrent · healthy</text>
    <rect x="324.1" y="200" width="1.4" height="22" fill="#6b6577"/>
    <rect x="45.7" y="222" width="1.4" height="22" fill="#6b6577"/>
    <text x="60.8" y="238" textLength="192" lengthAdjust="spacingAndGlyphs" xml:space="preserve" fill="#86d6a2">webtorrent · healthy</text>
    <rect x="324.1" y="222" width="1.4" height="22" fill="#6b6577"/>
    <rect x="45.7" y="244" width="1.4" height="22" fill="#6b6577"/>
    <rect x="324.1" y="244" width="1.4" height="22" fill="#6b6577"/>
    <rect x="45.7" y="266" width="1.4" height="22" fill="#6b6577"/>
    <rect x="324.1" y="266" width="1.4" height="22" fill="#6b6577"/>
    <rect x="45.7" y="288" width="1.4" height="22" fill="#6b6577"/>
    <rect x="324.1" y="288" width="1.4" height="22" fill="#6b6577"/>
    <rect x="45.7" y="310" width="1.4" height="22" fill="#6b6577"/>
    <rect x="324.1" y="310" width="1.4" height="22" fill="#6b6577"/>
    <rect x="45.7" y="332" width="1.4" height="22" fill="#6b6577"/>
    <rect x="324.1" y="332" width="1.4" height="22" fill="#6b6577"/>
    <text x="41.6" y="370" textLength="288" lengthAdjust="spacingAndGlyphs" xml:space="preserve" fill="#6b6577">╰────────────────────────────╯</text>
    <rect x="41.6" y="376" width="86.4" height="22" fill="#211c2d"/>
    <text x="41.6" y="392" textLength="86.4" lengthAdjust="spacingAndGlyphs" xml:space="preserve" fill="#86d6a2" font-weight="600">Protected</text>
    <rect x="128" y="376" width="201.6" height="22" fill="#211c2d"/>
    <text x="128" y="392" textLength="201.6" lengthAdjust="spacingAndGlyphs" xml:space="preserve" fill="#b9a7e6"> · 6/6 healthy       </text>
  </g>
</svg>