<?xml version="1.0" encoding="UTF-8"?>
<svg xmlns="http://www.w3.org/2000/svg" width="1024" height="738" viewBox="0 0 1024 738" style="max-width: 1024px; width: 100%; height: auto;" role="img">
  <rect width="100%" height="100%" rx="14" fill="#0a0810"/>
  <rect x="0.5" y="0.5" width="1023" height="737" rx="14" fill="none" stroke="#2d2b31" stroke-width="1"/>
  <text x="512" y="23" text-anchor="middle" font-family='ui-monospace, "Cascadia Mono", "SF Mono", Menlo, Consolas, "DejaVu Sans Mono", monospace' font-size="13" fill="#8a8a8a">torlnk-plus</text>
  <g font-family='ui-monospace, "Cascadia Mono", "SF Mono", Menlo, Consolas, "DejaVu Sans Mono", monospace' font-size="16" fill="#ddd8ea">
    <text x="99.2" y="84" textLength="9.6" lengthAdjust="spacingAndGlyphs" xml:space="preserve" fill="#5ae87a" font-weight="600">𐓏</text>
    <rect x="51.2" y="90" width="9.6" height="11" fill="#faf6ff"/>
    <rect x="60.8" y="90" width="9.6" height="22" fill="#f6edff"/>
    <rect x="70.4" y="90" width="9.6" height="11" fill="#f1e4ff"/>
    <rect x="89.6" y="90" width="9.6" height="22" fill="#e8d2fe"/>
    <rect x="99.2" y="90" width="9.6" height="11" fill="#e3c9fe"/>
    <rect x="108.8" y="90" width="9.6" height="22" fill="#dfc1fe"/>
    <rect x="128" y="90" width="9.6" height="22" fill="#d6b2fe"/>
    <rect x="137.6" y="90" width="9.6" height="11" fill="#d2affe"/>
    <rect x="147.2" y="90" width="9.6" height="22" fill="#cfacfd"/>
    <rect x="166.4" y="90" width="9.6" height="22" fill="#c8a7fd"/>
    <rect x="204.8" y="90" width="9.6" height="22" fill="#ba9bfc"/>
    <rect x="214.4" y="101" width="9.6" height="11" fill="#b698fb"/>
    <rect x="233.6" y="90" width="9.6" height="22" fill="#af92fb"/>
    <rect x="252.8" y="90" width="9.6" height="22" fill="#a88cfa"/>
    <rect x="262.4" y="101" width="9.6" height="11" fill="#a589f9"/>
    <rect x="272" y="90" width="9.6" height="11" fill="#a387f7"/>
    <rect x="300.8" y="101" width="9.6" height="11" fill="#9b7ef0"/>
    <rect x="60.8" y="112" width="9.6" height="22" fill="#9476ea"/>
    <rect x="89.6" y="112" width="9.6" height="22" fill="#8c6de3"/>
    <rect x="99.2" y="123" width="9.6" height="11" fill="#896be1"/>
    <rect x="108.8" y="112" width="9.6" height="22" fill="#8768df"/>
    <rect x="128" y="112" width="9.6" height="22" fill="#8262db"/>
    <rect x="137.6" y="112" width="9.6" height="11" fill="#7f5fd9"/>
    <rect x="147.2" y="123" width="9.6" height="11" fill="#7d5dd6"/>
    <rect x="166.4" y="112" width="9.6" height="22" fill="#7758ce"/>
    <rect x="176" y="123" width="9.6" height="11" fill="#7456c9"/>
    <rect x="185.6" y="123" width="9.6" height="11" fill="#7154c5"/>
    <rect x="204.8" y="112" width="9.6" height="22" fill="#6b50bc"/>
    <rect x="224" y="112" width="9.6" height="11" fill="#664cb3"/>
    <rect x="233.6" y="112" width="9.6" height="22" fill="#634aae"/>
    <rect x="252.8" y="112" width="9.6" height="22" fill="#5d46a5"/>
    <rect x="272" y="112" width="9.6" height="22" fill="#57429c"/>
    <rect x="291.2" y="112" width="9.6" height="11" fill="#523e93"/>
    <rect x="300.8" y="112" width="9.6" height="22" fill="#4f3c8f"/>
    <rect x="310.4" y="112" width="9.6" height="11" fill="#4c3a8a"/>
    <text x="41.6" y="150" textLength="201.6" lengthAdjust="spacingAndGlyphs" xml:space="preserve" fill="#b9a7e6">1 Search  2 Downloads</text>
    <text x="262.4" y="150" textLength="86.4" lengthAdjust="spacingAndGlyphs" xml:space="preserve" fill="#a78bfa" font-weight="600">3 Seeding</text>
    <text x="368" y="150" textLength="192" lengthAdjust="spacingAndGlyphs" xml:space="preserve" fill="#b9a7e6">4 Settings  5 Health</text>
    <text x="41.6" y="172" textLength="19.2" lengthAdjust="spacingAndGlyphs" xml:space="preserve" fill="#a78bfa">╭─</text>
    <text x="70.4" y="172" textLength="86.4" lengthAdjust="spacingAndGlyphs" xml:space="preserve" fill="#a78bfa" font-weight="600">Seeding 1</text>
    <text x="166.4" y="172" textLength="816" lengthAdjust="spacingAndGlyphs" xml:space="preserve" fill="#a78bfa">────────────────────────────────────────────────────────────────────────────────────╮</text>
    <rect x="45.7" y="178" width="1.4" height="22" fill="#a78bfa"/>
    <text x="60.8" y="194" textLength="9.6" lengthAdjust="spacingAndGlyphs" xml:space="preserve" fill="#a78bfa" font-weight="600">❯</text>
    <text x="80" y="194" textLength="9.6" lengthAdjust="spacingAndGlyphs" xml:space="preserve" fill="#86d6a2">↑</text>
    <text x="99.2" y="194" textLength="259.2" lengthAdjust="spacingAndGlyphs" xml:space="preserve" fill="#a78bfa" font-weight="600">Reference sample collection</text>
    <text x="377.6" y="194" textLength="192" lengthAdjust="spacingAndGlyphs" xml:space="preserve" fill="#86d6a2">WebTorrent · Seeding</text>
    <rect x="976.9" y="178" width="1.4" height="22" fill="#a78bfa"/>
    <rect x="45.7" y="200" width="1.4" height="22" fill="#a78bfa"/>
    <text x="89.6" y="216" textLength="576" lengthAdjust="spacingAndGlyphs" xml:space="preserve" fill-opacity="0.55">953.67 MB / 953.67 MB  ↓ 0 B/s  ↑ 225 KB/s  ETA 0s  18 peers</text>
    <rect x="976.9" y="200" width="1.4" height="22" fill="#a78bfa"/>
    <rect x="45.7" y="222" width="1.4" height="22" fill="#a78bfa"/>
    <text x="89.6" y="238" textLength="777.6" lengthAdjust="spacingAndGlyphs" xml:space="preserve" fill="#86d6a2">█ █ █ █ █ █ █ █ █ █ █ █ █ █ █ █ █ █ █ █ █ █ █ █ █ █ █ █ █ █ █ █ █ █ █ █ █ █ █ █ █</text>
    <text x="896" y="238" textLength="38.4" lengthAdjust="spacingAndGlyphs" xml:space="preserve" fill-opacity="0.55">100%</text>
    <rect x="976.9" y="222" width="1.4" height="22" fill="#a78bfa"/>
    <rect x="45.7" y="244" width="1.4" height="22" fill="#a78bfa"/>
    <text x="60.8" y="260" textLength="403.2" lengthAdjust="spacingAndGlyphs" xml:space="preserve" fill-opacity="0.55">· missing  ! active  █ verified  ? unknown</text>
    <rect x="976.9" y="244" width="1.4" height="22" fill="#a78bfa"/>
    <rect x="45.7" y="266" width="1.4" height="22" fill="#a78bfa"/>
    <text x="60.8" y="282" textLength="710.4" lengthAdjust="spacingAndGlyphs" xml:space="preserve" fill="#b9a7e6" fill-opacity="0.55">Delete/x remove  Enter details  ↑/k ↓/j move  p pause  r recheck  e export</text>
    <rect x="976.9" y="266" width="1.4" height="22" fill="#a78bfa"/>
    <rect x="45.7" y="288" width="1.4" height="22" fill="#a78bfa"/>
    <rect x="976.9" y="288" width="1.4" height="22" fill="#a78bfa"/>
    <rect x="45.7" y="310" width="1.4" height="22" fill="#a78bfa"/>
    <rect x="976.9" y="310" width="1.4" height="22" fill="#a78bfa"/>
    <rect x="45.7" y="332" width="1.4" height="22" fill="#a78bfa"/>
    <rect x="976.9" y="332" width="1.4" height="22" fill="#a78bfa"/>
    <rect x="45.7" y="354" width="1.4" height="22" fill="#a78bfa"/>
    <rect x="976.9" y="354" width="1.4" height="22" fill="#a78bfa"/>
    <rect x="45.7" y="376" width="1.4" height="22" fill="#a78bfa"/>
    <rect x="976.9" y="376" width="1.4" height="22" fill="#a78bfa"/>
    <rect x="45.7" y="398" width="1.4" height="22" fill="#a78bfa"/>
    <rect x="976.9" y="398" width="1.4" height="22" fill="#a78bfa"/>
    <rect x="45.7" y="420" width="1.4" height="22" fill="#a78bfa"/>
    <rect x="976.9" y="420" width="1.4" height="22" fill="#a78bfa"/>
    <rect x="45.7" y="442" width="1.4" height="22" fill="#a78bfa"/>
    <rect x="976.9" y="442" width="1.4" height="22" fill="#a78bfa"/>
    <rect x="45.7" y="464" width="1.4" height="22" fill="#a78bfa"/>
    <rect x="976.9" y="464" width="1.4" height="22" fill="#a78bfa"/>
    <rect x="45.7" y="486" width="1.4" height="22" fill="#a78bfa"/>
    <rect x="976.9" y="486" width="1.4" height="22" fill="#a78bfa"/>
    <rect x="45.7" y="508" width="1.4" height="22" fill="#a78bfa"/>
    <rect x="976.9" y="508" width="1.4" height="22" fill="#a78bfa"/>
    <rect x="45.7" y="530" width="1.4" height="22" fill="#a78bfa"/>
    <rect x="976.9" y="530" width="1.4" height="22" fill="#a78bfa"/>
    <rect x="45.7" y="552" width="1.4" height="22" fill="#a78bfa"/>
    <rect x="976.9" y="552" width="1.4" height="22" fill="#a78bfa"/>
    <rect x="45.7" y="574" width="1.4" height="22" fill="#a78bfa"/>
    <rect x="976.9" y="574" width="1.4" height="22" fill="#a78bfa"/>
    <rect x="45.7" y="596" width="1.4" height="22" fill="#a78bfa"/>
    <rect x="976.9" y="596" width="1.4" height="22" fill="#a78bfa"/>
    <rect x="45.7" y="618" width="1.4" height="22" fill="#a78bfa"/>
    <rect x="976.9" y="618" width="1.4" height="22" fill="#a78bfa"/>
    <rect x="45.7" y="640" width="1.4" height="22" fill="#a78bfa"/>
    <rect x="976.9" y="640" width="1.4" height="22" fill="#a78bfa"/>
    <text x="41.6" y="678" textLength="940.8" lengthAdjust="spacingAndGlyphs" xml:space="preserve" fill="#a78bfa">╰────────────────────────────────────────────────────────────────────────────────────────────────╯</text>
    <rect x="41.6" y="684" width="86.4" height="22" fill="#211c2d"/>
    <text x="41.6" y="700" textLength="86.4" lengthAdjust="spacingAndGlyphs" xml:space="preserve" fill="#86d6a2" font-weight="600">Protected</text>
    <rect x="128" y="684" width="854.4" height="22" fill="#211c2d"/>
    <text x="128" y="700" textLength="854.4" lengthAdjust="spacingAndGlyphs" xml:space="preserve" fill="#b9a7e6"> · 6/6 healthy · qB · ↓7.8 MB/s ↑345 KB/s                     Ctrl+P commands · 1–5 pages</text>
  </g>
</svg>